# xmcd
# 
# Track frame offsets:
#     150
#     16671
#     32153
#     47011
#     67105
#     87582
#     104876
#     121206
#     139479
#     168776
# 
# Disc length: 3959
# 
# Revision: 2
# Processed by: cddbd v1.5.2PL0 Copyright (c) Steve Scherf et al.
# Submitted via: fre:ac v1.1beta1pre4
# 
DISCID=8b0f750a
DTITLE=Ivana Kindl - Promjenjiva
DYEAR=2010
DGENRE=CRO-POP
TTITLE0=Promjenjiva
TTITLE1=Ne Bi Mogli Zajedno
TTITLE2=Kao Nekada
TTITLE3=Utjeha
TTITLE4=Iz Nekih Starih Razloga
TTITLE5=Nisi Sam
TTITLE6=Putovanje
TTITLE7=Oci
TTITLE8=Sunshine
TTITLE9=Data Track
EXTD=DJ-Technics
EXTT0=
EXTT1=
EXTT2=
EXTT3=
EXTT4=
EXTT5=
EXTT6=
EXTT7=
EXTT8=
EXTT9=
PLAYORDER=
